<svg width="21" height="30" viewBox="0 0 21 30" fill="none" xmlns="http://www.w3.org/2000/svg">
    <g clip-path="url(#clip0_276_415)">
        <path
            d="M9.60016 0.990019C8.05516 1.66502 7.27516 3.60002 7.83016 5.46002C8.07016 6.25502 9.22516 7.47002 9.87016 7.59002C10.2752 7.68002 10.3052 7.71002 10.1252 7.90502C9.84016 8.19002 9.84016 8.47502 10.1252 8.76002C10.3352 8.95502 10.3202 9.00002 10.0502 9.15002C9.69016 9.34502 9.64516 10.08 9.99016 10.35C10.1852 10.53 10.0502 10.635 9.04516 11.16C7.39516 12.03 6.69016 12.51 5.37016 13.605C2.89516 15.69 1.48516 17.955 0.915163 20.82C0.705163 21.825 0.720163 23.685 0.945163 24.735L1.12516 25.545L2.40016 26.055C4.14016 26.76 6.79516 27.405 8.80516 27.615C11.5952 27.915 14.8802 27.405 18.2852 26.145C19.7402 25.62 19.8152 25.56 19.9502 25.05C20.4002 23.355 20.2352 20.625 19.5752 18.99C18.3302 15.9 15.6452 13.14 11.9852 11.175C10.9652 10.635 10.8152 10.515 11.0252 10.35C11.3402 10.095 11.3102 9.55502 10.9502 9.22502C10.7252 9.03002 10.6952 8.91002 10.8152 8.76002C10.9052 8.65502 10.9502 8.38502 10.9202 8.16002C10.8752 7.78502 10.9352 7.72502 11.4602 7.62002C12.6602 7.36502 13.6352 6.16502 13.8602 4.65002L13.9502 3.97502L13.6052 4.57502C13.0952 5.49002 12.3902 5.89502 11.4752 5.82002C9.30016 5.64002 8.41516 2.92502 9.97516 1.26002C10.5002 0.705019 10.4102 0.645018 9.60016 0.990019ZM9.21016 5.31002C9.58516 5.89502 10.5302 6.45002 11.3552 6.58502L12.0752 6.69002L11.4452 6.90002C10.5602 7.17002 9.84016 6.99002 9.18016 6.33002C8.46016 5.61002 8.17516 4.75502 8.32516 3.79502L8.43016 3.07502L8.70016 4.00502C8.83516 4.51502 9.06016 5.10002 9.21016 5.31002ZM11.1452 11.49C15.5402 13.755 18.3902 16.83 19.2752 20.25C19.5602 21.33 19.6352 23.25 19.4552 24.33L19.3352 25.02L17.8052 25.56C16.5002 26.025 14.1302 26.685 13.7702 26.7C13.6952 26.7 13.6502 26.46 13.6502 26.175V25.65H14.5202C15.0002 25.65 15.4652 25.575 15.5702 25.47C15.6752 25.365 15.7502 25.005 15.7502 24.645V24H16.7252C17.6402 24 17.7002 23.97 17.7902 23.625C17.8352 23.415 17.8502 22.77 17.8202 22.2C17.7752 21.3 17.7152 21.105 17.3252 20.685C17.0702 20.43 16.5752 20.07 16.2002 19.905C15.8252 19.74 15.6152 19.575 15.7202 19.53C16.0202 19.44 16.3502 18.66 16.3502 18.06C16.3502 17.64 16.2302 17.4 15.8402 17.01C15.4052 16.575 15.2252 16.5 14.6552 16.5C13.8902 16.5 13.1552 16.995 12.9902 17.61C12.9302 17.865 12.7652 17.985 12.4202 18.045C12.1502 18.09 11.7902 18.18 11.6252 18.24C11.3552 18.33 11.3552 18.315 11.6702 18.015C12.4502 17.25 12.4502 16.245 11.6852 15.51C11.0702 14.925 9.97516 14.88 9.39016 15.435C8.59516 16.185 8.58016 17.145 9.34516 17.985C9.66016 18.33 9.66016 18.345 9.37516 18.24C9.21016 18.18 8.85016 18.09 8.59516 18.045C8.29516 18 8.10016 17.865 8.10016 17.745C8.10016 17.625 7.87516 17.295 7.59016 17.01C7.15516 16.575 6.97516 16.5 6.39016 16.5C5.43016 16.5 4.80016 17.07 4.69516 18.015C4.63516 18.585 4.68016 18.765 5.01016 19.155C5.22016 19.41 5.40016 19.65 5.40016 19.695C5.40016 19.725 5.20516 19.8 4.96516 19.845C4.39516 19.965 3.60016 20.655 3.36016 21.255C3.10516 21.855 3.09016 23.58 3.33016 23.82C3.43516 23.925 3.90016 24 4.38016 24H5.25016V24.645C5.25016 25.005 5.32516 25.365 5.43016 25.47C5.53516 25.575 6.00016 25.65 6.48016 25.65H7.35016V26.175C7.35016 26.46 7.29016 26.7 7.21516 26.7C6.88516 26.7 5.05516 26.22 4.09516 25.89C1.32016 24.915 1.59016 25.17 1.41016 23.31C1.00516 19.02 3.93016 14.7 9.15016 11.865C10.4252 11.175 10.4852 11.16 11.1452 11.49ZM10.9202 16.14C11.4902 16.53 11.2202 17.55 10.5452 17.55C10.1702 17.55 9.75016 17.1 9.75016 16.71C9.75016 16.425 10.2302 15.9 10.5002 15.9C10.5452 15.9 10.7402 16.005 10.9202 16.14ZM6.97516 17.7C7.39516 18.165 7.12516 18.81 6.49516 18.87C6.12016 18.915 5.97016 18.84 5.76016 18.54C5.53516 18.18 5.53516 18.12 5.76016 17.775C6.06016 17.31 6.60016 17.28 6.97516 17.7ZM15.2252 17.7C15.6452 18.165 15.3752 18.81 14.7452 18.87C14.3702 18.915 14.2202 18.84 14.0102 18.54C13.7852 18.18 13.7852 18.12 14.0102 17.775C14.3102 17.31 14.8502 17.28 15.2252 17.7ZM9.12016 19.62C9.21016 20.475 8.53516 20.85 7.92016 20.295C7.60516 20.025 7.57516 19.755 7.81516 19.335C7.93516 19.095 8.10016 19.05 8.52016 19.08C9.03016 19.125 9.07516 19.17 9.12016 19.62ZM13.1702 19.23C13.5752 19.635 13.1702 20.55 12.5852 20.55C11.9852 20.55 11.6102 19.65 12.0302 19.23C12.2552 19.005 12.9452 19.005 13.1702 19.23ZM10.8752 19.35C10.8302 19.425 10.6502 19.5 10.4852 19.5C10.3352 19.5 10.2002 19.425 10.2002 19.35C10.2002 19.26 10.3802 19.2 10.5902 19.2C10.8002 19.2 10.9352 19.26 10.8752 19.35ZM10.9652 20.55C11.4002 20.79 11.3402 21.525 10.8752 21.84C10.5302 22.065 10.4702 22.065 10.1252 21.84C9.69016 21.555 9.63016 21 9.99016 20.64C10.2602 20.355 10.5602 20.34 10.9652 20.55ZM7.15516 20.88L7.50016 21.21L6.72016 21.585C6.21016 21.84 5.79016 22.17 5.56516 22.53C5.26516 22.995 5.11516 23.1 4.69516 23.1H4.20016V22.305C4.20016 21.66 4.27516 21.435 4.56016 21.165C5.26516 20.505 6.60016 20.355 7.15516 20.88ZM15.6152 20.7C16.5002 20.955 16.8002 21.345 16.8002 22.275V23.1H16.3052C15.8852 23.1 15.7352 22.995 15.4352 22.53C15.2102 22.17 14.7902 21.84 14.2952 21.585L13.5002 21.21L13.8302 20.88C14.1902 20.52 14.7602 20.46 15.6152 20.7ZM9.37516 22.5C9.64516 22.785 9.63016 22.8 9.36016 22.8C8.80516 22.8 7.69516 23.64 7.48516 24.21C7.32016 24.675 7.23016 24.75 6.79516 24.75H6.30016V23.88C6.30016 22.65 6.81016 22.23 8.34016 22.215C8.92516 22.2 9.16516 22.275 9.37516 22.5ZM13.9502 22.47C14.5952 22.785 14.8652 23.295 14.8202 24.075C14.7752 24.63 14.7452 24.675 14.3102 24.72C13.8902 24.765 13.7852 24.69 13.4702 24.12C13.2152 23.655 12.9152 23.37 12.3752 23.1C11.9552 22.89 11.5952 22.71 11.5652 22.695C11.5352 22.665 11.5952 22.56 11.7002 22.425C11.9552 22.11 13.2902 22.125 13.9502 22.47ZM11.4602 23.715C12.3752 23.97 12.7502 24.45 12.7502 25.35V26.1H10.5002H8.25016V25.365C8.25016 24.48 8.53516 24.075 9.37516 23.775C10.1102 23.52 10.6952 23.505 11.4602 23.715Z"
            fill="#BCBCBC" />
        <path
            d="M2.35514 26.745C2.40014 27 2.47514 27.27 2.53514 27.315C2.58014 27.375 3.40514 27.69 4.35014 28.02C8.76014 29.535 12.1051 29.535 16.5751 28.02C17.5651 27.69 18.4051 27.39 18.4201 27.375C18.4501 27.345 18.5251 27.09 18.6001 26.805L18.7051 26.28L18.0451 26.565C17.6851 26.715 16.8301 27.015 16.1551 27.21C11.7601 28.545 7.41014 28.335 3.04514 26.58L2.26514 26.265L2.35514 26.745Z"
            fill="#BCBCBC" />
        <path
            d="M2.35514 26.745C2.40014 27 2.47514 27.27 2.53514 27.315C2.58014 27.375 3.40514 27.69 4.35014 28.02C8.76014 29.535 12.1051 29.535 16.5751 28.02C17.5651 27.69 18.4051 27.39 18.4201 27.375C18.4501 27.345 18.5251 27.09 18.6001 26.805L18.7051 26.28L18.0451 26.565C17.6851 26.715 16.8301 27.015 16.1551 27.21C11.7601 28.545 7.41014 28.335 3.04514 26.58L2.26514 26.265L2.35514 26.745Z"
            stroke="black" />
    </g>
    <defs>
        <clipPath id="clip0_276_415">
            <rect width="20.85" height="30" fill="white" />
        </clipPath>
    </defs>
</svg>
