<svg width="60" height="60" viewBox="0 0 60 60" fill="none" xmlns="http://www.w3.org/2000/svg">
    <path
        d="M49.375 42.5C51.1009 42.5 52.5 41.1009 52.5 39.375C52.5 37.6491 51.1009 36.25 49.375 36.25C47.6491 36.25 46.25 37.6491 46.25 39.375C46.25 41.1009 47.6491 42.5 49.375 42.5Z"
        fill="#C98E00" />
    <path d="M32.7638 52.1038L50.85 42.1163L48.175 36.4888L32.5 43.75L32.7638 52.1038Z"
        fill="#C98E00" />
    <path
        d="M56.25 40.625C56.25 38.8987 54.8513 37.5 53.125 37.5C52.7 37.5 52.295 37.5862 51.9263 37.74L51.925 37.7387L51.9112 37.745C51.9087 37.7462 51.9062 37.7475 51.9037 37.7487L36.25 45L34.375 43.75C36.1013 43.75 37.5 42.3513 37.5 40.625C37.5 39.4625 36.8575 38.46 35.9162 37.9212L35.9212 37.9012L18.8575 29.3187H18.8262C18.0387 28.9612 17.1712 28.75 16.25 28.75C15.3525 28.75 14.5037 28.9463 13.7312 29.2875H13.7038L3.75 33.75V50L13.8625 45.3525L33.7512 53.4875H33.7525C34.1363 53.655 34.5563 53.75 35 53.75C35.5438 53.75 36.0475 53.5987 36.4937 53.3537L36.515 53.3525L54.6012 43.3663L54.6 43.3638C55.5775 42.8363 56.25 41.815 56.25 40.625Z"
        fill="url(#paint0_linear_360_1637)" />
    <path
        d="M34.375 42.5C35.4105 42.5 36.25 41.6605 36.25 40.625C36.25 39.5895 35.4105 38.75 34.375 38.75C33.3395 38.75 32.5 39.5895 32.5 40.625C32.5 41.6605 33.3395 42.5 34.375 42.5Z"
        fill="#FFDE87" />
    <path
        d="M36.25 45.0001L34.3887 43.7526C32.82 43.6776 31.5863 43.1676 21.25 39.3613V43.7501L35.6888 49.6676C35.6888 49.6676 34.6663 46.8138 36.25 45.0001Z"
        fill="url(#paint1_linear_360_1637)" />
    <path
        d="M44.6763 27.8699C37.5 27.8699 31.945 22.3149 31.945 15.1387C31.945 10.8562 33.6813 7.15241 36.9213 4.72241C30.2088 5.76366 25 11.5512 25 18.4949C25 26.2499 31.25 32.4999 39.005 32.4999C43.5188 32.4999 47.4538 30.4162 50 27.1762C48.2637 27.8699 46.6438 27.8699 44.6763 27.8699Z"
        fill="url(#paint2_radial_360_1637)" />
    <path
        d="M43.7715 18.3337L46.9927 20L46.3265 16.3338L48.9927 13.7787L45.4377 13.3337L43.7715 10L42.1052 13.3337L38.439 13.8888L41.1052 16.4437L40.549 20L43.7715 18.3337Z"
        fill="#BBBFF3" />
    <defs>
        <linearGradient id="paint0_linear_360_1637" x1="3.75" y1="41.25" x2="56.25" y2="41.25"
            gradientUnits="userSpaceOnUse">
            <stop stop-color="#FFCF54" />
            <stop offset="0.261" stop-color="#FDCB4D" />
            <stop offset="0.639" stop-color="#F7C13A" />
            <stop offset="1" stop-color="#F0B421" />
        </linearGradient>
        <linearGradient id="paint1_linear_360_1637" x1="27.9213" y1="45.4601" x2="30.1538"
            y2="41.6101" gradientUnits="userSpaceOnUse">
            <stop stop-color="#F0B421" stop-opacity="0" />
            <stop offset="0.512" stop-color="#E9AB12" stop-opacity="0.512" />
            <stop offset="1" stop-color="#E09F00" />
        </linearGradient>
        <radialGradient id="paint2_radial_360_1637" cx="0" cy="0" r="1"
            gradientUnits="userSpaceOnUse"
            gradientTransform="translate(47.8937 20.0787) scale(29.7425)">
            <stop stop-color="#FBFBFF" />
            <stop offset="0.123" stop-color="#D7D9F7" />
            <stop offset="0.384" stop-color="white" />
            <stop offset="0.625" stop-color="#BBBFF3" />
            <stop offset="0.838" stop-color="white" />
            <stop offset="1" stop-color="white" />
        </radialGradient>
    </defs>
</svg>
