<svg width="32" height="30" viewBox="0 0 32 30" fill="none" xmlns="http://www.w3.org/2000/svg">
    <path
        d="M18.954 0.833321C19.2725 0.843072 19.5752 0.974064 19.8004 1.19953L31.467 12.8662C31.7014 13.1006 31.833 13.4185 31.833 13.75C31.833 14.0815 31.7014 14.3993 31.467 14.6338L19.8004 26.3004C19.6255 26.4752 19.4028 26.5941 19.1604 26.6423C18.918 26.6905 18.6667 26.6657 18.4383 26.5711C18.21 26.4766 18.0148 26.3164 17.8774 26.1109C17.74 25.9054 17.6667 25.6638 17.6666 25.4167V19.0462C15.8436 18.9499 13.019 18.9502 10.134 19.8991C6.71589 21.0233 3.63162 23.2156 2.64217 28.1624C2.58091 28.4662 2.40896 28.7365 2.1597 28.9207C1.91044 29.1049 1.60163 29.19 1.29321 29.1593C0.984779 29.1287 0.698725 28.9846 0.490547 28.755C0.282369 28.5254 0.166913 28.2266 0.166583 27.9167C0.166583 27.8259 0.193369 27.7608 0.194253 27.6709H0.190998C0.192248 27.6646 0.196258 27.6608 0.197508 27.6546C0.283407 19.4756 3.98327 14.5225 8.1451 11.8278C11.8112 9.45399 15.4522 8.81818 17.6666 8.57095V2.08332C17.6665 1.91598 17.7001 1.75032 17.7652 1.59618C17.8304 1.44204 17.9258 1.30255 18.0459 1.18597C18.1659 1.0694 18.3082 0.97812 18.4642 0.917543C18.6202 0.856966 18.7867 0.828326 18.954 0.833321V0.833321ZM20.1666 5.1009V9.62238C20.1666 9.93787 20.0473 10.2417 19.8327 10.4729C19.6181 10.7042 19.324 10.8457 19.0094 10.8691C17.3389 10.9925 13.1491 11.5657 9.50415 13.9258C7.2882 15.3606 5.33874 17.5353 4.07283 20.6299C5.65444 19.1619 7.49718 18.1347 9.35278 17.5244C13.3246 16.218 17.2971 16.4129 19.0338 16.5755C19.3437 16.6047 19.6316 16.7485 19.8411 16.9788C20.0507 17.2091 20.1667 17.5093 20.1666 17.8206V22.3991L28.8157 13.75L20.1666 5.1009Z"
        fill="white" />
</svg>
