<svg width="44" height="44" viewBox="0 0 44 44" fill="none" xmlns="http://www.w3.org/2000/svg">
    <path
        d="M17.1322 2.67301C19.6919 -0.310073 24.3081 -0.310072 26.8678 2.67301C28.1981 4.22333 30.1873 5.04728 32.2242 4.89169C36.1435 4.5923 39.4077 7.8565 39.1083 11.7758C38.9527 13.8127 39.7767 15.8019 41.327 17.1322C44.3101 19.6919 44.3101 24.3081 41.327 26.8678C39.7767 28.1981 38.9527 30.1873 39.1083 32.2242C39.4077 36.1435 36.1435 39.4077 32.2242 39.1083C30.1873 38.9527 28.1981 39.7767 26.8678 41.327C24.3081 44.3101 19.6919 44.3101 17.1322 41.327C15.8019 39.7767 13.8127 38.9527 11.7758 39.1083C7.85649 39.4077 4.5923 36.1435 4.89169 32.2242C5.04728 30.1873 4.22333 28.1981 2.67301 26.8678C-0.310073 24.3081 -0.310072 19.6919 2.67301 17.1322C4.22333 15.8019 5.04728 13.8127 4.89169 11.7758C4.5923 7.85649 7.8565 4.5923 11.7758 4.89169C13.8127 5.04728 15.8019 4.22333 17.1322 2.67301Z"
        fill="#3F48CC" />
</svg>
